<svg width="115" height="39" viewBox="0 0 115 39" fill="none" xmlns="http://www.w3.org/2000/svg">
<g clip-path="url(#clip0_53_872)">
<path d="M28.1538 25.8029L18.0492 15.8518L14.8869 18.761L25.0927 28.8185L31.4882 35.1189L34.5493 32.1034L28.1538 25.8029Z" fill="#763383"/>
<path d="M32.4973 13.1554C30.6039 5.99715 24.0296 1 16.5136 1C11.2115 1 6.19639 3.53681 3.09819 7.78256C1.06986 10.5588 0 13.8403 0 17.2682C0 21.3577 1.52885 25.221 4.3098 28.2233C2.80457 26.551 1.96421 24.4663 1.96421 22.2055C1.96421 19.8249 2.88557 17.6538 4.39754 16.0214C4.61354 13.9467 5.36278 11.9751 6.60813 10.2695C8.89634 7.13423 12.5986 5.26237 16.5136 5.26237C22.062 5.26237 26.9118 8.94956 28.309 14.2326C28.5688 15.2168 28.7005 16.2408 28.7005 17.2715C28.7005 19.8349 27.8939 22.2786 26.365 24.3433L26.4899 24.1704L29.5813 27.2159C31.6535 24.4198 33.0271 20.7459 33.0271 17.2715C33.0271 15.8751 32.8483 14.492 32.4973 13.1554Z" fill="#EB6F25"/>
<path d="M4.74515 28.6821C4.59665 28.5325 4.45153 28.3796 4.30978 28.2233C4.45153 28.3796 4.59328 28.5325 4.74515 28.6821Z" fill="#00A19B"/>
<path d="M26.4899 24.1671L26.3651 24.34C25.6057 25.364 24.6911 26.2617 23.6482 27.0065C21.5625 28.4926 19.0954 29.2773 16.5136 29.2773C13.2231 29.2773 10.1384 28.0039 7.82653 25.6932C6.87142 24.7589 6.29093 23.5321 6.29093 22.2088C6.29093 19.4858 8.53864 17.2715 11.3027 17.2715C12.6932 17.2715 13.9892 17.8201 14.9443 18.8175L18.0863 15.8884C16.3314 14.0598 13.8575 13.0091 11.3027 13.0091C8.56902 13.0091 6.10531 14.1728 4.39759 16.0247C2.889 17.6605 1.96426 19.8316 1.96426 22.2088C1.96426 24.4697 2.80462 26.5543 4.30985 28.2267C4.45159 28.3796 4.59672 28.5359 4.74521 28.6855C7.87378 31.8174 12.0553 33.5397 16.5136 33.5397C20.0134 33.5397 23.358 32.4757 26.1828 30.4609C27.4855 29.53 28.6027 28.4727 29.5814 27.2159L26.4899 24.1671Z" fill="#00A19B"/>
</g>
<path d="M43.6473 17.6142C43.6473 22.761 47.2315 25.6203 50.6807 25.6203C53.1747 25.6203 55.7363 24.2738 57.2044 21.5175C57.2719 21.3479 57.4778 21.2815 57.6128 21.3845L60.7549 23.3694C60.8561 23.4359 60.927 23.6055 60.8561 23.7052C58.7738 27.9111 54.8116 29.896 50.8494 29.896C44.9433 29.896 39 25.5571 39 17.6175C39 9.67795 44.9433 5.33911 50.8494 5.33911C54.8116 5.33911 58.7704 7.32401 60.8561 11.5299C60.9236 11.6296 60.8561 11.7992 60.7549 11.8657L57.6128 13.8506C57.4778 13.9503 57.2719 13.8838 57.2044 13.7176C55.7363 10.958 53.1747 9.61478 50.6807 9.61478C47.2011 9.60813 43.6473 12.5007 43.6473 17.6142Z" fill="black"/>
<path d="M62.6685 24.174C62.6685 29.3208 67.1774 31.1727 71.0687 28.7157L73.4581 27.2029C73.6978 27.0333 73.9036 27.1696 73.9036 27.4057V29.1213C73.9036 29.2543 74.0386 29.3906 74.177 29.3906H78.0683C78.2033 29.3906 78.3417 29.2576 78.3417 29.1213V12.8398C78.3417 12.7068 78.2067 12.5705 78.0683 12.5705H74.177C74.042 12.5705 73.9036 12.7035 73.9036 12.8398V21.9231C73.9036 24.8157 72.0609 26.1955 70.2823 26.1955C68.6421 26.1955 67.1065 25.3543 67.1065 22.7976V12.8398C67.1065 12.7068 66.9715 12.5705 66.8331 12.5705H62.9418C62.8068 12.5705 62.6685 12.7035 62.6685 12.8398V24.174Z" fill="black"/>
<path d="M81.6896 29.3906H85.5842C85.7192 29.3906 85.8576 29.2576 85.8576 29.1213V6.11046C85.8576 5.97747 85.7226 5.84116 85.5842 5.84116H81.6896C81.5546 5.84116 81.4162 5.97747 81.4162 6.11046V29.1213C81.4162 29.2543 81.5546 29.3906 81.6896 29.3906Z" fill="black"/>
<path d="M101.291 15.0242V12.8365C101.291 12.7035 101.426 12.5672 101.565 12.5672H105.459C105.594 12.5672 105.733 12.7002 105.733 12.8365V35.8473C105.733 35.9803 105.598 36.1166 105.459 36.1166H101.565C101.43 36.1166 101.291 35.9837 101.291 35.8473V27.5055C101.291 27.2361 100.984 27.1364 100.778 27.3359C99.3776 28.9517 97.4303 29.7597 95.7597 29.7597C92.0034 29.7597 88.2471 26.8338 88.2471 21.0454C88.2471 15.9319 91.73 12.1982 95.3142 12.1982C96.168 12.1982 97.2615 12.4675 98.2841 13.2754L100.846 15.227C101.052 15.36 101.291 15.2603 101.291 15.0242ZM92.8572 21.0122C92.8572 23.6354 94.7337 25.7899 97.194 25.7899C99.1751 25.7899 101.291 23.7052 101.291 20.8459C101.291 17.6508 99.0705 16.0017 97.2278 16.0017C95.0408 16.0017 92.8572 17.6142 92.8572 21.0122Z" fill="black"/>
<path d="M110.717 10.4493C112.253 10.4493 113.448 9.3056 113.448 7.68975C113.448 6.14373 112.253 5 110.717 5C109.111 5 107.883 6.14373 107.883 7.68975C107.883 9.23578 109.111 10.4493 110.717 10.4493ZM108.736 29.3906H112.631C112.766 29.3906 112.904 29.2576 112.904 29.1213V12.8398C112.904 12.7068 112.769 12.5705 112.631 12.5705H108.736C108.601 12.5705 108.463 12.7035 108.463 12.8398V29.1213C108.463 29.2543 108.598 29.3906 108.736 29.3906Z" fill="black"/>
<defs>
<clipPath id="clip0_53_872">
<rect width="35" height="34.1189" fill="white" transform="translate(0 1)"/>
</clipPath>
</defs>
</svg>
